<svg width="215" height="55" viewBox="0 0 215 55" fill="none" xmlns="http://www.w3.org/2000/svg">
<path d="M164.654 41.018H167.976V55H165.522L165.182 44.8422H144.718L144.379 55H142V41.018H143.926C144.781 39.9425 145.461 38.369 145.964 36.2976C146.468 34.1864 146.858 31.5374 147.135 28.3506C147.412 25.124 147.601 21.3397 147.701 16.9977C147.827 12.6159 147.94 7.61668 148.041 2H164.654V41.018ZM161.935 41.018V5.88388H150.533C150.457 10.8234 150.357 15.2052 150.231 19.0293C150.105 22.8534 149.916 26.1796 149.665 29.0079C149.413 31.8362 149.086 34.2461 148.683 36.2379C148.305 38.1898 147.802 39.7832 147.173 41.018H161.935Z" fill="#333333"/>
<path d="M180.029 45.4397C178.695 45.4397 177.462 45.0812 176.329 44.3641C175.197 43.6471 174.215 42.6114 173.384 41.257C172.554 39.8628 171.899 38.1699 171.421 36.1781C170.943 34.1466 170.704 31.8561 170.704 29.3066C170.704 26.7572 170.943 24.4867 171.421 22.4949C171.899 20.5032 172.554 18.8301 173.384 17.4758C174.215 16.0815 175.197 15.0259 176.329 14.3089C177.462 13.5919 178.695 13.2334 180.029 13.2334C181.363 13.2334 182.597 13.5919 183.73 14.3089C184.887 15.0259 185.882 16.0815 186.712 17.4758C187.568 18.8301 188.235 20.5032 188.713 22.4949C189.192 24.4867 189.431 26.7572 189.431 29.3066C189.431 31.8561 189.192 34.1466 188.713 36.1781C188.235 38.1699 187.568 39.8628 186.712 41.257C185.882 42.6114 184.887 43.6471 183.73 44.3641C182.597 45.0812 181.363 45.4397 180.029 45.4397ZM180.029 41.9143C181.011 41.9143 181.917 41.6554 182.748 41.1375C183.579 40.5799 184.296 39.7832 184.9 38.7475C185.529 37.7118 186.008 36.4171 186.335 34.8636C186.687 33.2702 186.863 31.4179 186.863 29.3066C186.863 27.1954 186.687 25.363 186.335 23.8095C186.008 22.2161 185.529 20.9015 184.9 19.8658C184.296 18.8301 183.579 18.0534 182.748 17.5355C181.917 17.0177 181.011 16.7587 180.029 16.7587C179.048 16.7587 178.142 17.0177 177.311 17.5355C176.48 18.0534 175.763 18.8301 175.159 19.8658C174.555 20.9015 174.077 22.2161 173.724 23.8095C173.397 25.363 173.233 27.1954 173.233 29.3066C173.233 31.4179 173.397 33.2702 173.724 34.8636C174.077 36.4171 174.555 37.7118 175.159 38.7475C175.763 39.7832 176.48 40.5799 177.311 41.1375C178.142 41.6554 179.048 41.9143 180.029 41.9143Z" fill="#333333"/>
<path d="M212.508 18.3123L205.221 41.018H203.258L196.197 18.1928V44.8422H193.819V13.8309H197.557L204.39 35.9391L211.451 13.8309H215V44.8422H212.508V18.3123Z" fill="#333333"/>
<path d="M40.1714 32.774H31.5609V46.0369H27V14.6056H31.5609V27.0812H40.1714V14.6056H44.7323V46.0369H40.1714V32.774Z" fill="#333333"/>
<path d="M49.2953 40.3442C49.8982 39.5367 50.37 38.4264 50.7107 37.0133C51.0777 35.6002 51.366 33.8439 51.5757 31.7445C51.7854 29.6046 51.9427 27.1216 52.0475 24.2954C52.1524 21.4692 52.2441 18.2393 52.3228 14.6056H67.2635V40.3442H70.3303V55H66.3592L66.0053 46.0369H51.9296L51.5757 55H47.5653V40.3442H49.2953ZM62.7026 40.3442V20.2984H56.2545C56.1235 25.2644 55.9007 29.3826 55.5861 32.6529C55.2978 35.8828 54.8129 38.4466 54.1314 40.3442H62.7026Z" fill="#333333"/>
<path d="M90.3697 43.7356C90.0814 44.0182 89.7275 44.3412 89.3082 44.7046C88.8888 45.0276 88.3907 45.3304 87.8141 45.613C87.2374 45.8956 86.569 46.1379 85.8089 46.3397C85.0487 46.5416 84.1838 46.6425 83.2139 46.6425C79.4656 46.6425 76.661 45.2093 74.7999 42.3427C72.9651 39.4761 72.0477 35.4589 72.0477 30.291C72.0477 27.7474 72.2967 25.4663 72.7947 23.4476C73.2927 21.4289 73.9874 19.7331 74.8786 18.3604C75.7698 16.9473 76.8313 15.8774 78.0633 15.1507C79.2952 14.3836 80.6452 14 82.113 14C83.6333 14 84.9963 14.3836 86.2021 15.1507C87.434 15.9178 88.4432 17.0684 89.2295 18.6027C90.0159 20.1369 90.5532 22.0345 90.8416 24.2954C91.1561 26.5564 91.1692 29.2009 90.8809 32.2289H76.7658C76.9493 35.0955 77.5653 37.2555 78.6137 38.709C79.6622 40.1221 81.3005 40.8287 83.5285 40.8287C85.1536 40.8287 86.5035 40.5259 87.5782 39.9202C88.6791 39.2742 89.6096 38.6081 90.3697 37.9217V43.7356ZM82.113 19.5716C80.7762 19.5716 79.6491 20.1974 78.7317 21.449C77.8143 22.7006 77.2114 24.5579 76.9231 27.0207H86.5166C86.569 24.4771 86.2021 22.5997 85.4157 21.3885C84.6293 20.1773 83.5285 19.5716 82.113 19.5716Z" fill="#333333"/>
<path d="M101.445 33.2585H99.6758V46.0369H95.1149V14.6056H99.6758V27.5657H101.602L108.09 14.6056H112.887L105.18 29.7459L113.201 46.0369H107.815L101.445 33.2585Z" fill="#333333"/>
<path d="M124.67 46.6425C123.019 46.6425 121.538 46.2792 120.227 45.5524C118.916 44.7853 117.802 43.7154 116.885 42.3427C115.968 40.9296 115.26 39.2137 114.762 37.195C114.264 35.1763 114.015 32.8749 114.015 30.291C114.015 27.7474 114.264 25.4663 114.762 23.4476C115.26 21.4289 115.968 19.7331 116.885 18.3604C117.802 16.9473 118.929 15.8774 120.266 15.1507C121.603 14.3836 123.097 14 124.748 14C126.164 14 127.396 14.2422 128.444 14.7267C129.519 15.2112 130.371 15.8168 131 16.5436V22.3575C130.187 21.55 129.296 20.9242 128.326 20.4801C127.383 20.0359 126.282 19.8139 125.024 19.8139C120.804 19.8139 118.694 23.3063 118.694 30.291C118.694 37.2757 120.764 40.7681 124.906 40.7681C126.243 40.7681 127.383 40.546 128.326 40.1019C129.296 39.6174 130.187 39.0118 131 38.2851V44.099C130.318 44.7853 129.467 45.3909 128.444 45.9158C127.422 46.4003 126.164 46.6425 124.67 46.6425Z" fill="#333333"/>
<path d="M1.93537 14.4351C1.93537 11.9972 2.19868 9.88005 2.72531 8.08368C3.25195 6.24454 3.98923 4.74756 4.93716 3.59275C5.8851 2.39517 7.01735 1.49698 8.33393 0.898186C9.67684 0.299395 11.1646 0 12.7971 0H22V46H17.1813V28.2929H12.7971L5.56912 46H0L7.97846 27.1381C5.9246 26.3254 4.39737 24.8498 3.39677 22.7113C2.4225 20.53 1.93537 17.7713 1.93537 14.4351ZM17.1813 21.8131V6.7364H12.7576C10.9671 6.7364 9.53202 7.31381 8.45242 8.46862C7.39916 9.58066 6.87253 11.5053 6.87253 14.2427C6.87253 16.9372 7.3465 18.8833 8.29443 20.0809C9.24237 21.2357 10.5853 21.8131 12.3232 21.8131H17.1813Z" fill="#FF0303"/>
</svg>
